<?xml version="1.0" standalone="no"?>
<!DOCTYPE svg PUBLIC "-//W3C//DTD SVG 20010904//EN"
 "http://www.w3.org/TR/2001/REC-SVG-20010904/DTD/svg10.dtd">
<svg version="1.0" xmlns="http://www.w3.org/2000/svg"
 width="260.000000pt" height="260.000000pt" viewBox="0 0 260.000000 260.000000"
 preserveAspectRatio="xMidYMid meet">
<metadata>
Created by potrace 1.11, written by Peter Selinger 2001-2013
</metadata>
<g transform="translate(0.000000,260.000000) scale(0.100000,-0.100000)"
fill="#000000" stroke="none">
<path d="M0 1300 l0 -1300 1300 0 1300 0 0 1300 0 1300 -1300 0 -1300 0 0
-1300z m1711 630 c10 -6 26 -25 35 -42 22 -43 13 -164 -19 -257 -36 -101 -86
-169 -219 -294 -66 -61 -131 -130 -144 -153 -29 -49 -31 -120 -9 -264 8 -52
15 -135 15 -184 0 -78 -3 -93 -22 -113 -44 -47 -159 -25 -232 45 -91 88 -122
177 -112 326 11 171 78 448 151 629 6 14 4 16 -11 10 -11 -3 -32 -17 -47 -30
-68 -55 -64 1 5 73 141 149 513 305 609 254z"/>
<path d="M1566 1879 c-60 -14 -193 -87 -225 -124 -34 -39 -60 -138 -68 -261
-7 -97 0 -129 28 -145 35 -18 72 6 179 118 149 154 200 245 200 353 0 68 -23
80 -114 59z"/>
</g>
</svg>
